<svg id="visual" viewBox="0 0 960 540" width="960" height="540" xmlns="http://www.w3.org/2000/svg" xmlns:xlink="http://www.w3.org/1999/xlink" version="1.1"><rect x="0" y="0" width="960" height="540" fill="#BF8B67"></rect><defs><linearGradient id="grad1_0" x1="43.8%" y1="100%" x2="100%" y2="0%"><stop offset="14.444444444444446%" stop-color="#bf8b67" stop-opacity="1"></stop><stop offset="85.55555555555554%" stop-color="#bf8b67" stop-opacity="1"></stop></linearGradient></defs><defs><linearGradient id="grad2_0" x1="0%" y1="100%" x2="56.3%" y2="0%"><stop offset="14.444444444444446%" stop-color="#bf8b67" stop-opacity="1"></stop><stop offset="85.55555555555554%" stop-color="#bf8b67" stop-opacity="1"></stop></linearGradient></defs><g transform="translate(960, 540)"><path d="M-378 0C-363.7 -46.4 -349.4 -92.9 -331.7 -137.4C-313.9 -181.9 -292.6 -224.4 -261.6 -261.6C-230.6 -298.8 -189.9 -330.7 -144.7 -349.2C-99.4 -367.7 -49.7 -372.9 0 -378L0 0Z" fill="#DACC96"></path></g><g transform="translate(0, 0)"><path d="M378 0C345.1 38.2 312.1 76.4 298.4 123.6C284.7 170.8 290.2 227.1 267.3 267.3C244.4 307.5 193.2 331.6 143.9 347.4C94.6 363.2 47.3 370.6 0 378L0 0Z" fill="#DACC96"></path></g></svg>