<svg id="visual" viewBox="0 0 960 540" width="960" height="540" xmlns="http://www.w3.org/2000/svg" xmlns:xlink="http://www.w3.org/1999/xlink" version="1.1">
<rect x="0" y="0" width="960" height="540" fill="#BF8B67">
</rect><defs><linearGradient id="grad1_0" x1="43.8%" y1="100%" x2="100%" y2="0%">
<stop offset="14.444444444444446%" stop-color="#bf8b67" stop-opacity="1">
</stop><stop offset="85.55555555555554%" stop-color="#bf8b67" stop-opacity="1">
</stop></linearGradient></defs><defs>
<linearGradient id="grad2_0" x1="0%" y1="100%" x2="56.3%" y2="0%">
<stop offset="14.444444444444446%" stop-color="#bf8b67" stop-opacity="1"></stop>
<stop offset="85.55555555555554%" stop-color="#bf8b67" stop-opacity="1"></stop>
</linearGradient></defs><g transform="translate(960, 540)">
<path d="M-378 0C-374.3 -50.3 -370.6 -100.6 -349.2 -144.7C-327.9 -188.7 -288.9 -226.6 -247.5 -247.5C-206.1 -268.3 -162.2 -272.1 -120.5 -291C-78.9 -309.9 -39.4 -344 0 -378L0 0Z" fill="#DACC96">
</path></g>
<g transform="translate(0, 0)">
<path d="M378 0C360.4 44.5 342.8 89 327.1 135.5C311.3 182 297.5 230.5 267.3 267.3C237.1 304.1 190.4 329 143.1 345.5C95.8 362 47.9 370 0 378L0 0Z" fill="#DACC96">
</path>
</g></svg>